<svg viewBox="0 0 24 24" fill="none" xmlns="http://www.w3.org/2000/svg" id="Bill-Check--Streamline-Solar-Ar" height="24" width="24">
  <desc>
    Bill Check Streamline Icon: https://streamlinehq.com
  </desc>
  <path d="M16.755 2H7.24502c-1.15888 0 -1.73831 0 -2.20563 0.16261 -0.88617 0.30835 -1.58191 1.02458 -1.88144 1.93685C3 4.58055 3 5.17705 3 6.37006V20.3742c0 0.8582 0.985 1.3136 1.6081 0.7434 0.36607 -0.335 0.91773 -0.335 1.2838 0l0.4831 0.4421c0.64159 0.5871 1.60841 0.5871 2.25 0 0.64159 -0.5871 1.6084 -0.5871 2.25 0s1.6084 0.5871 2.25 0 1.6084 -0.5871 2.25 0 1.6084 0.5871 2.25 0l0.4831 -0.4421c0.3661 -0.335 0.9177 -0.335 1.2838 0 0.6231 0.5702 1.6081 0.1148 1.6081 -0.7434V6.37006c0 -1.19301 0 -1.78951 -0.158 -2.2706 -0.2995 -0.91227 -0.9952 -1.6285 -1.8814 -1.93685C18.4933 2 17.9139 2 16.755 2Z" stroke="#000000" stroke-width="1.5"></path>
  <path d="m9.5 10.4 1.4286 1.6L14.5 8" stroke="#000000" stroke-linecap="round" stroke-linejoin="round" stroke-width="1.5"></path>
  <path d="M7.5 15.5h9" stroke="#000000" stroke-linecap="round" stroke-width="1.5"></path>
</svg>