<svg viewBox="0 0 24 24" fill="none" xmlns="http://www.w3.org/2000/svg" id="Box--Streamline-Solar-Ar" height="24" width="24">
  <desc>
    Box Streamline Icon: https://streamlinehq.com
  </desc>
  <path d="m15.5777 3.38197 2 1.04955c2.1517 1.12914 3.2275 1.69371 3.8249 2.70822C22 8.15425 22 9.41667 22 11.9415v0.117c0 2.5248 0 3.7873 -0.5974 4.8018s-1.6732 1.579 -3.8249 2.7082l-2 1.0495C13.8221 21.5393 12.9443 22 12 22c-0.9443 0 -1.8221 -0.4607 -3.57771 -1.382l-2 -1.0495c-2.15166 -1.1292 -3.2275 -1.6937 -3.82489 -2.7082C2 15.8458 2 14.5833 2 12.0585v-0.117c0 -2.52483 0 -3.78725 0.5974 -4.80176 0.59739 -1.01451 1.67323 -1.57908 3.82489 -2.70822l2 -1.04955C10.1779 2.46066 11.0557 2 12 2c0.9443 0 1.8221 0.46066 3.5777 1.38197Z" stroke="#000000" stroke-linecap="round" stroke-width="1.5"></path>
  <path d="m21 7.5 -4 2M12 12 3 7.5m9 4.5v9.5m0 -9.5 4.5 -2.25c0.1953 -0.09763 0.5 -0.25 0.5 -0.25m0 0V13m0 -3.5 -9.5 -5" stroke="#000000" stroke-linecap="round" stroke-width="1.5"></path>
</svg>