<svg viewBox="0 0 24 24" fill="none" xmlns="http://www.w3.org/2000/svg" id="Cart-Large-Minimalistic--Streamline-Solar-Ar" height="24" width="24">
  <desc>
    Cart Large Minimalistic Streamline Icon: https://streamlinehq.com
  </desc>
  <path d="M7.5 18c0.82843 0 1.5 0.6716 1.5 1.5S8.32843 21 7.5 21 6 20.3284 6 19.5 6.67157 18 7.5 18Z" stroke="#000000" stroke-width="1.5"></path>
  <path d="M16.5 18.0001c0.8284 0 1.5 0.6715 1.5 1.5 0 0.8284 -0.6716 1.5 -1.5 1.5s-1.5 -0.6716 -1.5 -1.5c0 -0.8285 0.6716 -1.5 1.5 -1.5Z" stroke="#000000" stroke-width="1.5"></path>
  <path d="m2.26121 3.09184 0.24876 -0.70755 -0.24876 0.70755Zm-0.01245 -0.79938c-0.39077 -0.13739 -0.81892 0.06802 -0.9563 0.45878 -0.13739 0.39077 0.06802 0.81892 0.45878 0.9563l0.49752 -1.41508Zm2.33708 2.03052 0.61923 -0.42315 -0.61923 0.42315ZM5.88772 14.5862l-0.54427 0.516 0.54427 -0.516ZM20.6578 9.88275l0.7345 0.15145 0.001 -0.0046 -0.7355 -0.14685Zm-0.4998 2.42475 0.7346 0.1514 -0.7346 -0.1514Zm0.5765 -5.61042 -0.5944 0.45731 0.5944 -0.45731Zm-1.6009 8.35332 -0.4738 -0.5814 0.4738 0.5814ZM5.70808 9.76V7.03836h-1.5V9.76h1.5ZM2.50997 2.38429l-0.26121 -0.09183 -0.49752 1.41508 0.26121 0.09184 0.49752 -1.41509ZM10.9375 16.25h5.3029v-1.5h-5.3029v1.5ZM5.70808 7.03836c0 -0.70716 0.00102 -1.29726 -0.05089 -1.77679 -0.05373 -0.49638 -0.17014 -0.9491 -0.45212 -1.36174l-1.23846 0.8463c0.09026 0.13209 0.15996 0.31351 0.19929 0.67686 0.04116 0.38021 0.04218 0.87542 0.04218 1.61537h1.5ZM2.01245 3.79938c0.66761 0.23472 1.10636 0.39027 1.42921 0.54868 0.30322 0.14878 0.43689 0.26921 0.52495 0.39807l1.23846 -0.8463c-0.28418 -0.41586 -0.66203 -0.6822 -1.10266 -0.8984 -0.42102 -0.20658 -0.95846 -0.39424 -1.59244 -0.61714l-0.49752 1.41509ZM4.20808 9.76c0 1.4525 0.01363 2.4999 0.15068 3.3001 0.14632 0.8543 0.43846 1.466 0.98469 2.0421l1.08853 -1.032c-0.32016 -0.3377 -0.49285 -0.6684 -0.59475 -1.2633 -0.11116 -0.6491 -0.12915 -1.5579 -0.12915 -3.0469h-1.5Zm6.72942 4.99c-1.41681 0 -2.39987 -0.0018 -3.14054 -0.1068 -0.71481 -0.1014 -1.09244 -0.2856 -1.36498 -0.573l-1.08853 1.032c0.59386 0.6264 1.34667 0.8991 2.24291 1.0261 0.87038 0.1235 1.97899 0.1217 3.35114 0.1217v-1.5ZM4.95808 6.87H17.0888v-1.5H4.95808v1.5ZM19.9232 9.73135l-0.4997 2.42475 1.4691 0.3028 0.4997 -2.4247 -1.4691 -0.30285ZM17.0888 6.87c0.8564 0 1.6101 0.001 2.2049 0.06749 0.2956 0.03304 0.5168 0.07894 0.6722 0.13356 0.1614 0.05671 0.1871 0.10022 0.1742 0.08334l1.1889 -0.91461c-0.235 -0.30542 -0.5654 -0.47833 -0.8658 -0.58391 -0.3065 -0.10769 -0.6531 -0.17 -1.0028 -0.20909 -0.6958 -0.07778 -1.543 -0.07678 -2.3716 -0.07678v1.5Zm4.3045 3.1596c0.1692 -0.84793 0.3129 -1.55936 0.3481 -2.12922 0.0361 -0.5862 -0.0306 -1.16421 -0.4124 -1.6606l-1.1889 0.91461c0.062 0.08069 0.1305 0.22598 0.1041 0.65358 -0.0274 0.44394 -0.144 1.03681 -0.3219 1.92798l1.471 0.29365ZM16.2404 16.25c0.7617 0 1.4009 0.0013 1.9162 -0.0618 0.5357 -0.0655 1.0243 -0.2088 1.4508 -0.5564l-0.9476 -1.1628c-0.1252 0.102 -0.3027 0.1835 -0.6854 0.2304 -0.4032 0.0493 -0.9347 0.0506 -1.734 0.0506v1.5Zm3.1831 -4.0939c-0.1614 0.7828 -0.27 1.3032 -0.3997 1.6881 -0.1231 0.3653 -0.2388 0.5228 -0.364 0.6248l0.9476 1.1628c0.4265 -0.3476 0.6655 -0.7972 0.8379 -1.3086 0.1658 -0.492 0.2935 -1.1183 0.4473 -1.8643l-1.4691 -0.3028Z" fill="#000000" stroke-width="1.5"></path>
</svg>