<svg viewBox="0 0 24 24" fill="none" xmlns="http://www.w3.org/2000/svg" id="Chat-Line--Streamline-Solar-Ar" height="24" width="24">
  <desc>
    Chat Line Streamline Icon: https://streamlinehq.com
  </desc>
  <path d="m13.0867 21.3877 0.6454 0.382 -0.6454 -0.382Zm0.5421 -0.9159 -0.6455 -0.382 0.6455 0.382Zm-3.2576 0 -0.64541 0.3821 0.64541 -0.3821Zm0.5421 0.9159 0.6454 -0.382 -0.6454 0.382Zm-8.5327 -5.4743 0.69291 -0.287 -0.69291 0.287Zm5.40898 3.0781 -0.01292 0.7498 0.01292 -0.7498Zm-2.703 -0.3721 -0.28701 0.6929 0.28701 -0.6929Zm16.53282 -2.706 0.6929 0.287 -0.6929 -0.287Zm-5.409 3.0781 -0.0129 -0.7499 0.0129 0.7499Zm2.703 -0.3721 0.287 0.6929 -0.287 -0.6929Zm0.6991 -15.8826 -0.3919 0.63948 0.3919 -0.63948Zm1.6507 1.65071 0.6395 -0.39188 -0.6395 0.39188ZM4.38751 2.7368l-0.39188 -0.63948 0.39188 0.63948ZM2.7368 4.38751l-0.63948 -0.39188 0.63948 0.39188ZM9.40279 19.2098l0.37707 -0.6483 -0.37707 0.6483Zm4.32931 2.5599 0.5421 -0.9158 -1.2909 -0.7641 -0.5421 0.9159 1.2909 0.764Zm-4.00631 -0.9158 0.54211 0.9158 1.2908 -0.764 -0.5421 -0.9159 -1.29081 0.7641Zm2.71541 0.1518c-0.1927 0.3256 -0.6897 0.3256 -0.8825 0l-1.2908 0.764c0.7736 1.307 2.6906 1.307 3.4642 0l-1.2909 -0.764ZM10.5 2.75h3v-1.5h-3v1.5Zm10.75 7.75v1h1.5v-1h-1.5Zm-18.5 1v-1h-1.5v1h1.5Zm-1.5 0c0 1.1546 -0.00041 2.0581 0.04931 2.7868 0.05019 0.7355 0.15392 1.3476 0.38838 1.9136l1.38582 -0.574c-0.14614 -0.3528 -0.2327 -0.7826 -0.27767 -1.4417C2.75041 13.5189 2.75 12.6751 2.75 11.5h-1.5Zm6.5525 6.7416c-1.25544 -0.0217 -1.91327 -0.1015 -2.42891 -0.3151l-0.57402 1.3858c0.80497 0.3334 1.72181 0.4074 2.97709 0.429l0.02584 -1.4997Zm-6.11481 -2.0412c0.58359 1.4089 1.70297 2.5283 3.11188 3.1119l0.57403 -1.3858c-1.04137 -0.4314 -1.86874 -1.2587 -2.30009 -2.3001l-1.38582 0.574ZM21.25 11.5c0 1.1751 -0.0004 2.0189 -0.0458 2.6847 -0.045 0.6591 -0.1316 1.0889 -0.2777 1.4417l1.3858 0.574c0.2345 -0.566 0.3382 -1.1781 0.3884 -1.9136 0.0497 -0.7287 0.0493 -1.6322 0.0493 -2.7868h-1.5Zm-5.0267 8.2413c1.2553 -0.0216 2.1722 -0.0956 2.9771 -0.429l-0.574 -1.3858c-0.5156 0.2136 -1.1735 0.2934 -2.4289 0.3151l0.0258 1.4997Zm4.7032 -4.1149c-0.4314 1.0414 -1.2587 1.8687 -2.3001 2.3001l0.574 1.3858c1.4089 -0.5836 2.5283 -1.703 3.1119 -3.1119l-1.3858 -0.574ZM13.5 2.75c1.6512 0 2.837 0.00079 3.7619 0.08873 0.9138 0.08688 1.4952 0.2535 1.9587 0.53755l0.7838 -1.27896c-0.7389 -0.45275 -1.577 -0.65453 -2.6005 -0.75185C16.3915 1.24921 15.1222 1.25 13.5 1.25v1.5Zm9.25 7.75c0 -1.62219 0.0008 -2.8915 -0.0955 -3.90389 -0.0973 -1.02355 -0.2991 -1.86166 -0.7518 -2.60048l-1.279 0.78375c0.2841 0.46353 0.4507 1.04496 0.5376 1.95871 0.0879 0.92491 0.0887 2.11067 0.0887 3.76191h1.5Zm-3.5294 -7.12372c0.5719 0.35044 1.0527 0.83124 1.4031 1.4031l1.279 -0.78375c-0.4741 -0.77369 -1.1246 -1.42419 -1.8983 -1.89831l-0.7838 1.27896ZM10.5 1.25c-1.62219 0 -2.8915 -0.00079 -3.90389 0.09547 -1.02355 0.09732 -1.86166 0.2991 -2.60048 0.75185l0.78375 1.27896c0.46353 -0.28405 1.04496 -0.45067 1.95871 -0.53755C7.663 2.75079 8.84876 2.75 10.5 2.75v-1.5ZM2.75 10.5c0 -1.65124 0.00079 -2.837 0.08873 -3.76191 0.08688 -0.91375 0.2535 -1.49518 0.53755 -1.95871l-1.27896 -0.78375c-0.45275 0.73882 -0.65453 1.57693 -0.75185 2.60048C1.24921 7.6085 1.25 8.87781 1.25 10.5h1.5Zm1.24563 -8.40268c-0.77369 0.47412 -1.42419 1.12462 -1.89831 1.89831l1.27896 0.78375c0.35044 -0.57186 0.83124 -1.05266 1.4031 -1.4031l-0.78375 -1.27896ZM11.0166 20.0898c-0.203 -0.343 -0.3812 -0.6457 -0.5545 -0.8835 -0.1826 -0.2504 -0.3919 -0.4759 -0.68224 -0.6448l-0.75414 1.2967c0.04741 0.0275 0.112 0.0778 0.22413 0.2316 0.12137 0.1666 0.2585 0.3967 0.47594 0.7641l1.29081 -0.7641Zm-3.23994 -0.3485c0.43909 0.0076 0.71721 0.0132 0.92922 0.0366 0.19811 0.022 0.2749 0.0541 0.31984 0.0803l0.75414 -1.2967c-0.29276 -0.1703 -0.5974 -0.24 -0.90889 -0.2745 -0.29758 -0.0329 -0.65722 -0.0383 -1.06847 -0.0454l-0.02584 1.4997Zm6.49754 1.1126c0.2174 -0.3674 0.3545 -0.5975 0.4759 -0.7641 0.1121 -0.1538 0.1767 -0.2041 0.2241 -0.2316l-0.7541 -1.2967c-0.2903 0.1689 -0.4997 0.3944 -0.6822 0.6448 -0.1733 0.2378 -0.3515 0.5405 -0.5546 0.8835l1.2909 0.7641Zm1.9233 -2.6123c-0.4113 0.0071 -0.7709 0.0125 -1.0685 0.0454 -0.3115 0.0345 -0.6161 0.1042 -0.9089 0.2745l0.7541 1.2967c0.045 -0.0262 0.1218 -0.0583 0.3199 -0.0803 0.212 -0.0234 0.4901 -0.029 0.9292 -0.0366l-0.0258 -1.4997Z" fill="#000000" stroke-width="1.5"></path>
  <path d="M8 9h8" stroke="#000000" stroke-linecap="round" stroke-width="1.5"></path>
  <path d="M8 12.5h5.5" stroke="#000000" stroke-linecap="round" stroke-width="1.5"></path>
</svg>