<svg viewBox="0 0 24 24" fill="none" xmlns="http://www.w3.org/2000/svg" id="Graph-New--Streamline-Solar-Ar" height="24" width="24">
  <desc>
    Graph New Streamline Icon: https://streamlinehq.com
  </desc>
  <path d="M22 10.5V12c0 4.714 0 7.0711 -1.4645 8.5355C19.0711 22 16.714 22 12 22c-4.71405 0 -7.07107 0 -8.53553 -1.4645C2 19.0711 2 16.714 2 12c0 -4.71405 0 -7.07107 1.46447 -8.53553C4.92893 2 7.28595 2 12 2h1.5" stroke="#000000" stroke-linecap="round" stroke-width="1.5"></path>
  <path d="m7 14 1.79689 -2.1563c0.71205 -0.8544 1.06807 -1.2817 1.53641 -1.2817 0.4684 0 0.8244 0.4273 1.5365 1.2817l0.2604 0.3126c0.7121 0.8544 1.0681 1.2817 1.5365 1.2817 0.4683 0 0.8244 -0.4273 1.5364 -1.2817L17 10" stroke="#000000" stroke-linecap="round" stroke-width="1.5"></path>
  <path stroke="#000000" d="M16 5a3 3 0 1 0 6 0 3 3 0 1 0 -6 0" stroke-width="1.5"></path>
</svg>