<svg viewBox="0 0 24 24" fill="none" xmlns="http://www.w3.org/2000/svg" id="Shop--Streamline-Solar-Ar" height="24" width="24">
  <desc>
    Shop Streamline Icon: https://streamlinehq.com
  </desc>
  <path d="M3.5 11v3c0 3.7712 0 5.6569 1.17157 6.8284C5.84315 22 7.72876 22 11.5 22h1c3.7712 0 5.6569 0 6.8284 -1.1716C20.5 19.6569 20.5 17.7712 20.5 14v-3" stroke="#000000" stroke-width="1.5"></path>
  <path d="M9.50001 2H14.5l0.6517 6.51737C15.3382 10.382 13.8739 12 12 12s-3.33819 -1.618 -3.15173 -3.48263L9.50001 2Z" stroke="#000000" stroke-width="1.5"></path>
  <path d="M3.32972 5.35133c0.17808 -0.8904 0.26712 -1.3356 0.44816 -1.69649 0.38147 -0.76045 1.06788 -1.32316 1.88837 -1.54809C6.05564 2 6.50965 2 7.41768 2h2.08231l-0.72453 7.24527C8.61908 10.8091 7.30315 12 5.73152 12c-1.93045 0 -3.37831 -1.7661 -2.99972 -3.65907l0.59792 -2.9896Z" stroke="#000000" stroke-width="1.5"></path>
  <path d="M20.6703 5.35133c-0.1781 -0.8904 -0.2672 -1.3356 -0.4482 -1.69649 -0.3815 -0.76045 -1.0679 -1.32316 -1.8884 -1.54809C17.9443 2 17.4903 2 16.5823 2H14.5l0.7245 7.24527C15.3809 10.8091 16.6968 12 18.2685 12c1.9304 0 3.3783 -1.7661 2.9997 -3.65907l-0.5979 -2.9896Z" stroke="#000000" stroke-width="1.5"></path>
  <path d="M9.5 21.5v-3c0 -0.9346 0 -1.4019 0.20096 -1.75 0.13165 -0.228 0.32104 -0.4174 0.54904 -0.549C10.5981 16 11.0654 16 12 16s1.4019 0 1.75 0.201c0.228 0.1316 0.4174 0.321 0.549 0.549 0.201 0.3481 0.201 0.8154 0.201 1.75v3" stroke="#000000" stroke-linecap="round" stroke-width="1.5"></path>
</svg>